<svg xmlns="http://www.w3.org/2000/svg" font-family="'SF Mono','Fira Code','Cascadia Code',monospace" viewBox="0 0 167 150">
  <rect width="167" height="150" fill="#1e1e2e" rx="6"/>
  <text x="10" y="14" fill="#89b4fa" font-size="7" font-weight="700">Laucs</text>
  <text x="10" y="21" fill="#6c7086" font-size="4">Wahoo!</text>
  <path stroke="#313244" stroke-width=".5" d="M10 25h147"/>
  <text x="10" y="33" fill="#6c7086" font-size="3.2" font-weight="600" letter-spacing=".6">
    CURRENT PROJECTS
  </text>
  <rect width="147" height="60" x="10" y="36" fill="#181825" stroke="#313244" stroke-width=".5" rx="4"/>
  <text x="18" y="48" fill="#cdd6f4" font-size="4" font-weight="600">
    AI Chatbot
  </text>
  <rect width="14" height="6" x="18" y="52" fill="#2a233a" stroke="#cba6f7" stroke-width=".5" rx="2"/>
  <text x="25" y="56" fill="#cba6f7" font-size="3" text-anchor="middle">C++</text>
  <rect width="18" height="6" x="35" y="52" fill="#2a2730" stroke="#f9e2af" stroke-width=".5" rx="2"/>
  <text x="44" y="56" fill="#f9e2af" font-size="3" text-anchor="middle">python</text>
  <text x="18" y="66" fill="#cdd6f4" font-size="4" font-weight="600">
    Website
  </text>
  <rect width="16" height="6" x="18" y="70" fill="#1f2f28" stroke="#a6e3a1" stroke-width=".5" rx="2"/>
  <text x="26" y="74" fill="#a6e3a1" font-size="3" text-anchor="middle">react</text>
  <rect width="10" height="6" x="37" y="70" fill="#1f2f28" stroke="#a6e3a1" stroke-width=".5" rx="2"/>
  <text x="42" y="74" fill="#a6e3a1" font-size="3" text-anchor="middle">css</text>
  <rect width="8" height="6" x="50" y="70" fill="#1f2f28" stroke="#a6e3a1" stroke-width=".5" rx="2"/>
  <text x="54" y="74" fill="#a6e3a1" font-size="3" text-anchor="middle">js</text>
  <text x="18" y="84" fill="#cdd6f4" font-size="4" font-weight="600">
    Operating System
  </text>
  <rect width="14" height="6" x="18" y="88" fill="#2a2636" stroke="#fab387" stroke-width=".5" rx="2"/>
  <text x="25" y="92" fill="#fab387" font-size="3" text-anchor="middle">rust</text>
  <path stroke="#313244" stroke-width=".5" d="M10 104h147"/>
  <text x="10" y="112" fill="#6c7086" font-size="3.2" font-weight="600" letter-spacing=".6">
    STACK
  </text>
  <rect width="8" height="6" x="10" y="116" fill="#1f2f28" stroke="#a6e3a1" stroke-width=".5" rx="2"/>
  <text x="14" y="120" fill="#a6e3a1" font-size="3" text-anchor="middle">js</text>
  <rect width="12" height="6" x="20" y="116" fill="#1f2f28" stroke="#a6e3a1" stroke-width=".5" rx="2"/>
  <text x="26" y="120" fill="#a6e3a1" font-size="3" text-anchor="middle">css</text>
  <rect width="14" height="6" x="34" y="116" fill="#1f2f28" stroke="#a6e3a1" stroke-width=".5" rx="2"/>
  <text x="41" y="120" fill="#a6e3a1" font-size="3" text-anchor="middle">html</text>
  <rect width="18" height="6" x="50" y="116" fill="#1f2f28" stroke="#a6e3a1" stroke-width=".5" rx="2"/>
  <text x="59" y="120" fill="#a6e3a1" font-size="3" text-anchor="middle">react</text>
  <rect width="18" height="6" x="70" y="116" fill="#2a2730" stroke="#f9e2af" stroke-width=".5" rx="2"/>
  <text x="79" y="120" fill="#f9e2af" font-size="3" text-anchor="middle">python</text>
  <rect width="8" height="6" x="90" y="116" fill="#242c3a" stroke="#89b4fa" stroke-width=".5" rx="2"/>
  <text x="94" y="120" fill="#89b4fa" font-size="3" text-anchor="middle">C</text>
  <rect width="14" height="6" x="100" y="116" fill="#2a2636" stroke="#fab387" stroke-width=".5" rx="2"/>
  <text x="107" y="120" fill="#fab387" font-size="3" text-anchor="middle">rust</text>
  <rect width="10" height="6" x="116" y="116" fill="#242c3a" stroke="#89b4fa" stroke-width=".5" rx="2"/>
  <text x="121" y="120" fill="#89b4fa" font-size="3" text-anchor="middle">lua</text>
  <rect width="20" height="6" x="10" y="124" fill="#2a233a" stroke="#cba6f7" stroke-width=".5" rx="2"/>
  <text x="20" y="128" fill="#cba6f7" font-size="3" text-anchor="middle">photopea</text>
  <rect width="22" height="6" x="32" y="124" fill="#242c3a" stroke="#89b4fa" stroke-width=".5" rx="2"/>
  <text x="43" y="128" fill="#89b4fa" font-size="3" text-anchor="middle">vscodium</text>
  <rect width="18" height="6" x="56" y="124" fill="#2a2636" stroke="#fab387" stroke-width=".5" rx="2"/>
  <text x="65" y="128" fill="#fab387" font-size="3" text-anchor="middle">blender</text>
</svg>
