<svg viewBox="0 0 167 150" width="167" height="150" xmlns="http://www.w3.org/2000/svg"
     font-family="'SF Mono','Fira Code','Cascadia Code',monospace">

  <!-- Background -->
  <rect width="167" height="150" rx="6" fill="#1e1e2e"/>

  <!-- Header -->
  <text x="10" y="14" font-size="7" font-weight="700" fill="#89b4fa">Laucs</text>
  <text x="10" y="21" font-size="4" fill="#6c7086">Wahoo!</text>
  <line x1="10" y1="25" x2="157" y2="25" stroke="#313244" stroke-width="0.5"/>

  <!-- Section Label -->
  <text x="10" y="33" font-size="3.2" fill="#6c7086" letter-spacing="0.6"
        font-weight="600">CURRENT PROJECTS</text>

  <!-- Project Card -->
  <rect x="10" y="36" width="147" height="60" rx="4"
        fill="#181825" stroke="#313244" stroke-width="0.5"/>

  <!-- AI Chatbot -->
  <circle cx="16" cy="46" r="2" fill="#f38ba8"/>
  <text x="22" y="48" font-size="4" font-weight="600" fill="#cdd6f4">AI Chatbot</text>

  <!-- C++ -->
  <rect x="22" y="52" width="14" height="6" rx="2"
        fill="#2a233a" stroke="#cba6f7" stroke-width="0.5"/>
  <text x="29" y="56.3" font-size="3" fill="#cba6f7" text-anchor="middle">C++</text>

  <!-- Python -->
  <rect x="39" y="52" width="18" height="6" rx="2"
        fill="#2a2730" stroke="#f9e2af" stroke-width="0.5"/>
  <text x="48" y="56.3" font-size="3" fill="#f9e2af" text-anchor="middle">python</text>

  <!-- Website -->
  <circle cx="16" cy="64" r="2" fill="#a6e3a1"/>
  <text x="22" y="66" font-size="4" font-weight="600" fill="#cdd6f4">Website</text>

  <rect x="22" y="70" width="16" height="6" rx="2"
        fill="#1f2f28" stroke="#a6e3a1" stroke-width="0.5"/>
  <text x="30" y="74.3" font-size="3" fill="#a6e3a1" text-anchor="middle">react</text>

  <rect x="41" y="70" width="10" height="6" rx="2"
        fill="#1f2f28" stroke="#a6e3a1" stroke-width="0.5"/>
  <text x="46" y="74.3" font-size="3" fill="#a6e3a1" text-anchor="middle">css</text>

  <rect x="54" y="70" width="8" height="6" rx="2"
        fill="#1f2f28" stroke="#a6e3a1" stroke-width="0.5"/>
  <text x="58" y="74.3" font-size="3" fill="#a6e3a1" text-anchor="middle">js</text>

  <!-- Operating System -->
  <circle cx="16" cy="82" r="2" fill="#89b4fa"/>
  <text x="22" y="84" font-size="4" font-weight="600" fill="#cdd6f4">Operating System</text>

  <rect x="22" y="88" width="14" height="6" rx="2"
        fill="#2a2636" stroke="#fab387" stroke-width="0.5"/>
  <text x="29" y="92.3" font-size="3" fill="#fab387" text-anchor="middle">rust</text>

  <!-- Divider -->
  <line x1="10" y1="104" x2="157" y2="104" stroke="#313244" stroke-width="0.5"/>

  <!-- Stack -->
  <text x="10" y="112" font-size="3.2" fill="#6c7086"
        letter-spacing="0.6" font-weight="600">STACK</text>

  <!-- Row 1 -->
  <rect x="10" y="116" width="8" height="6" rx="2"
        fill="#1f2f28" stroke="#a6e3a1" stroke-width="0.5"/>
  <text x="14" y="120.3" font-size="3" fill="#a6e3a1" text-anchor="middle">js</text>

  <rect x="20" y="116" width="12" height="6" rx="2"
        fill="#1f2f28" stroke="#a6e3a1" stroke-width="0.5"/>
  <text x="26" y="120.3" font-size="3" fill="#a6e3a1" text-anchor="middle">css</text>

  <rect x="34" y="116" width="14" height="6" rx="2"
        fill="#1f2f28" stroke="#a6e3a1" stroke-width="0.5"/>
  <text x="41" y="120.3" font-size="3" fill="#a6e3a1" text-anchor="middle">html</text>

  <rect x="50" y="116" width="18" height="6" rx="2"
        fill="#1f2f28" stroke="#a6e3a1" stroke-width="0.5"/>
  <text x="59" y="120.3" font-size="3" fill="#a6e3a1" text-anchor="middle">react</text>

  <rect x="70" y="116" width="18" height="6" rx="2"
        fill="#2a2730" stroke="#f9e2af" stroke-width="0.5"/>
  <text x="79" y="120.3" font-size="3" fill="#f9e2af" text-anchor="middle">python</text>

  <rect x="90" y="116" width="8" height="6" rx="2"
        fill="#242c3a" stroke="#89b4fa" stroke-width="0.5"/>
  <text x="94" y="120.3" font-size="3" fill="#89b4fa" text-anchor="middle">C</text>

  <rect x="100" y="116" width="14" height="6" rx="2"
        fill="#2a2636" stroke="#fab387" stroke-width="0.5"/>
  <text x="107" y="120.3" font-size="3" fill="#fab387" text-anchor="middle">rust</text>

  <rect x="116" y="116" width="10" height="6" rx="2"
        fill="#242c3a" stroke="#89b4fa" stroke-width="0.5"/>
  <text x="121" y="120.3" font-size="3" fill="#89b4fa" text-anchor="middle">lua</text>

  <!-- Row 2 -->
  <rect x="10" y="124" width="20" height="6" rx="2"
        fill="#2a233a" stroke="#cba6f7" stroke-width="0.5"/>
  <text x="20" y="128.3" font-size="3" fill="#cba6f7" text-anchor="middle">photopea</text>

  <rect x="32" y="124" width="22" height="6" rx="2"
        fill="#242c3a" stroke="#89b4fa" stroke-width="0.5"/>
  <text x="43" y="128.3" font-size="3" fill="#89b4fa" text-anchor="middle">vscodium</text>

  <rect x="56" y="124" width="18" height="6" rx="2"
        fill="#2a2636" stroke="#fab387" stroke-width="0.5"/>
  <text x="65" y="128.3" font-size="3" fill="#fab387" text-anchor="middle">blender</text>

</svg>
