<svg viewBox="0 0 167 150" width="167" height="150" xmlns="http://www.w3.org/2000/svg" font-family="'SF Mono', 'Fira Code', 'Cascadia Code', monospace">
  <rect width="167" height="150" fill="#1e1e2e"/>

  <!-- Header -->
  <text x="6" y="12" font-size="5" font-weight="600" fill="#89b4fa" letter-spacing="0.5">Laucs</text>
  <text x="6" y="19" font-size="4" fill="#a6adc8">Wahoo!</text>

  <line x1="6" y1="23" x2="161" y2="23" stroke="#45475a" stroke-width="0.5"/>

  <!-- Section -->
  <text x="6" y="30" font-size="3" fill="#a6adc8" letter-spacing="0.8" font-weight="600">WHAT AM I DOING RIGHT NOW</text>

  <!-- Project Box -->
  <rect x="6" y="33" width="155" height="108" fill="none" stroke="#45475a" stroke-width="0.5"/>

  <!-- LUI -->
  <text x="10" y="41" font-size="4" font-weight="600" fill="#cdd6f4">LUI</text>

  <text x="10" y="49" font-size="3.5" font-weight="500" fill="#f38ba8">AI Chatbot</text>
  <rect x="10" y="51" width="12" height="6" rx="1" fill="#313244" stroke="#f38ba8" stroke-width="0.4"/>
  <text x="16" y="55.5" font-size="3" fill="#f38ba8" text-anchor="middle">C++</text>
  <rect x="24" y="51" width="16" height="6" rx="1" fill="#313244" stroke="#f9e2af" stroke-width="0.4"/>
  <text x="32" y="55.5" font-size="3" fill="#f9e2af" text-anchor="middle">python</text>

  <text x="10" y="65" font-size="3.5" font-weight="500" fill="#a6e3a1">Website</text>
  <rect x="10" y="67" width="12" height="6" rx="1" fill="#313244" stroke="#a6e3a1" stroke-width="0.4"/>
  <text x="16" y="71.5" font-size="3" fill="#a6e3a1" text-anchor="middle">react</text>
  <rect x="24" y="67" width="10" height="6" rx="1" fill="#313244" stroke="#a6e3a1" stroke-width="0.4"/>
  <text x="29" y="71.5" font-size="3" fill="#a6e3a1" text-anchor="middle">css</text>
  <rect x="36" y="67" width="8" height="6" rx="1" fill="#313244" stroke="#a6e3a1" stroke-width="0.4"/>
  <text x="40" y="71.5" font-size="3" fill="#a6e3a1" text-anchor="middle">js</text>

  <text x="10" y="81" font-size="3.5" font-weight="500" fill="#89b4fa">Operating System</text>
  <rect x="10" y="83" width="10" height="6" rx="1" fill="#313244" stroke="#f38ba8" stroke-width="0.4"/>
  <text x="15" y="87.5" font-size="3" fill="#f38ba8" text-anchor="middle">rust</text>

  <!-- Stack -->
  <text x="10" y="100" font-size="3" fill="#a6adc8" letter-spacing="0.8" font-weight="600">STACK</text>

  <rect x="10" y="103" width="8" height="6" rx="1" fill="#313244" stroke="#a6e3a1" stroke-width="0.4"/>
  <text x="14" y="107.5" font-size="3" fill="#a6e3a1" text-anchor="middle">js</text>
  <rect x="20" y="103" width="10" height="6" rx="1" fill="#313244" stroke="#a6e3a1" stroke-width="0.4"/>
  <text x="25" y="107.5" font-size="3" fill="#a6e3a1" text-anchor="middle">css</text>
  <rect x="32" y="103" width="12" height="6" rx="1" fill="#313244" stroke="#a6e3a1" stroke-width="0.4"/>
  <text x="38" y="107.5" font-size="3" fill="#a6e3a1" text-anchor="middle">html</text>
  <rect x="46" y="103" width="14" height="6" rx="1" fill="#313244" stroke="#a6e3a1" stroke-width="0.4"/>
  <text x="53" y="107.5" font-size="3" fill="#a6e3a1" text-anchor="middle">react</text>
  <rect x="62" y="103" width="16" height="6" rx="1" fill="#313244" stroke="#f9e2af" stroke-width="0.4"/>
  <text x="70" y="107.5" font-size="3" fill="#f9e2af" text-anchor="middle">python</text>
  <rect x="80" y="103" width="8" height="6" rx="1" fill="#313244" stroke="#89b4fa" stroke-width="0.4"/>
  <text x="84" y="107.5" font-size="3" fill="#89b4fa" text-anchor="middle">C</text>
  <rect x="90" y="103" width="10" height="6" rx="1" fill="#313244" stroke="#f38ba8" stroke-width="0.4"/>
  <text x="95" y="107.5" font-size="3" fill="#f38ba8" text-anchor="middle">rust</text>
  <rect x="102" y="103" width="8" height="6" rx="1" fill="#313244" stroke="#89b4fa" stroke-width="0.4"/>
  <text x="106" y="107.5" font-size="3" fill="#89b4fa" text-anchor="middle">lua</text>

  <rect x="10" y="111" width="20" height="6" rx="1" fill="#313244" stroke="#f9e2af" stroke-width="0.4"/>
  <text x="20" y="115.5" font-size="3" fill="#f9e2af" text-anchor="middle">photopea</text>
  <rect x="32" y="111" width="22" height="6" rx="1" fill="#313244" stroke="#89b4fa" stroke-width="0.4"/>
  <text x="43" y="115.5" font-size="3" fill="#89b4fa" text-anchor="middle">vscodium</text>
  <rect x="56" y="111" width="18" height="6" rx="1" fill="#313244" stroke="#f9e2af" stroke-width="0.4"/>
  <text x="65" y="115.5" font-size="3" fill="#f9e2af" text-anchor="middle">blender</text>
</svg>
