<svg xmlns="http://www.w3.org/2000/svg" font-family="'SF Mono', 'Fira Code', 'Cascadia Code', monospace" viewBox="0 0 167 150">
  <path fill="#1e1e2e" d="M0 0h167v150H0z"/>
  <text x="6" y="12" fill="#89b4fa" font-size="5" font-weight="600" letter-spacing=".5">Laucs</text>
  <text x="6" y="19" fill="#a6adc8" font-size="4">Wahoo!</text>
  <path stroke="#45475a" stroke-width=".5" d="M6 23h155"/>
  <text x="6" y="30" fill="#a6adc8" font-size="3" font-weight="600" letter-spacing=".8">WHAT AM I DOING RIGHT NOW</text>
  <path fill="none" stroke="#45475a" stroke-width=".5" d="M6 33h155v108H6z"/>
  <text x="10" y="41" fill="#cdd6f4" font-size="4" font-weight="600">LUI</text>
  <text x="10" y="49" fill="#f38ba8" font-size="3.5" font-weight="500">AI Chatbot</text>
  <rect width="12" height="6" x="10" y="51" fill="#313244" stroke="#f38ba8" stroke-width=".4" rx="1"/>
  <text x="16" y="56" fill="#f38ba8" font-size="3" text-anchor="middle">C++</text>
  <rect width="16" height="6" x="24" y="51" fill="#313244" stroke="#f9e2af" stroke-width=".4" rx="1"/>
  <text x="32" y="56" fill="#f9e2af" font-size="3" text-anchor="middle">python</text>
  <text x="10" y="65" fill="#a6e3a1" font-size="3.5" font-weight="500">Website</text>
  <rect width="12" height="6" x="10" y="67" fill="#313244" stroke="#a6e3a1" stroke-width=".4" rx="1"/>
  <text x="16" y="72" fill="#a6e3a1" font-size="3" text-anchor="middle">react</text>
  <rect width="10" height="6" x="24" y="67" fill="#313244" stroke="#a6e3a1" stroke-width=".4" rx="1"/>
  <text x="29" y="72" fill="#a6e3a1" font-size="3" text-anchor="middle">css</text>
  <rect width="8" height="6" x="36" y="67" fill="#313244" stroke="#a6e3a1" stroke-width=".4" rx="1"/>
  <text x="40" y="72" fill="#a6e3a1" font-size="3" text-anchor="middle">js</text>
  <text x="10" y="81" fill="#89b4fa" font-size="3.5" font-weight="500">Operating System</text>
  <rect width="8" height="6" x="10" y="83" fill="#313244" stroke="#89b4fa" stroke-width=".4" rx="1"/>
  <text x="14" y="88" fill="#89b4fa" font-size="3" text-anchor="middle">C</text>
  <rect width="12" height="6" x="20" y="83" fill="#313244" stroke="#89b4fa" stroke-width=".4" rx="1"/>
  <text x="26" y="88" fill="#89b4fa" font-size="3" text-anchor="middle">C++</text>
  <text x="10" y="100" fill="#a6adc8" font-size="3" font-weight="600" letter-spacing=".8">STACK</text>
  <rect width="8" height="6" x="10" y="103" fill="#313244" stroke="#a6e3a1" stroke-width=".4" rx="1"/>
  <text x="14" y="108" fill="#a6e3a1" font-size="3" text-anchor="middle">js</text>
  <rect width="10" height="6" x="20" y="103" fill="#313244" stroke="#a6e3a1" stroke-width=".4" rx="1"/>
  <text x="25" y="108" fill="#a6e3a1" font-size="3" text-anchor="middle">css</text>
  <rect width="12" height="6" x="32" y="103" fill="#313244" stroke="#a6e3a1" stroke-width=".4" rx="1"/>
  <text x="38" y="108" fill="#a6e3a1" font-size="3" text-anchor="middle">html</text>
  <rect width="14" height="6" x="46" y="103" fill="#313244" stroke="#a6e3a1" stroke-width=".4" rx="1"/>
  <text x="53" y="108" fill="#a6e3a1" font-size="3" text-anchor="middle">react</text>
  <rect width="18" height="6" x="62" y="103" fill="#313244" stroke="#f9e2af" stroke-width=".4" rx="1"/>
  <text x="71" y="108" fill="#f9e2af" font-size="3" text-anchor="middle">blender</text>
  <rect width="12" height="6" x="82" y="103" fill="#313244" stroke="#f38ba8" stroke-width=".4" rx="1"/>
  <text x="88" y="108" fill="#f38ba8" font-size="3" text-anchor="middle">C++</text>
  <rect width="8" height="6" x="96" y="103" fill="#313244" stroke="#89b4fa" stroke-width=".4" rx="1"/>
  <text x="100" y="108" fill="#89b4fa" font-size="3" text-anchor="middle">C</text>
  <rect width="16" height="6" x="106" y="103" fill="#313244" stroke="#f9e2af" stroke-width=".4" rx="1"/>
  <text x="114" y="108" fill="#f9e2af" font-size="3" text-anchor="middle">python</text>
</svg>
