<svg xmlns="http://www.w3.org/2000/svg" font-family="'SF Mono', 'Fira Code', 'Cascadia Code', monospace" viewBox="0 0 167 150">
  <rect width="167" height="150" fill="#1e1e2e" rx="4"/>
  <text x="8" y="13" fill="#89b4fa" font-size="6" font-weight="700">Laucs</text>
  <text x="8" y="20" fill="#6c7086" font-size="3.5">Wahoo!</text>
  <path stroke="#313244" stroke-width=".3" d="M8 24h151"/>
  <text x="8" y="31" fill="#6c7086" font-size="3" font-weight="600" letter-spacing=".6">CURRENT PROJECTS</text>
  <rect width="151" height="62" x="8" y="34" fill="#181825" stroke="#313244" stroke-width=".3" rx="2"/>
  <circle cx="14" cy="42" r="1.5" fill="#f38ba8"/>
  <text x="18" y="44" fill="#cdd6f4" font-size="3.5" font-weight="600">AI Chatbot</text>
  <rect width="10" height="5" x="18" y="46" fill="#2a2740" stroke="#cba6f7" stroke-width=".3" rx="1"/>
  <text x="23" y="50" fill="#cba6f7" font-size="2.5" text-anchor="middle">C++</text>
  <rect width="14" height="5" x="30" y="46" fill="#2a2740" stroke="#f9e2af" stroke-width=".3" rx="1"/>
  <text x="37" y="50" fill="#f9e2af" font-size="2.5" text-anchor="middle">python</text>
  <circle cx="14" cy="58" r="1.5" fill="#a6e3a1"/>
  <text x="18" y="60" fill="#cdd6f4" font-size="3.5" font-weight="600">Website</text>
  <rect width="12" height="5" x="18" y="62" fill="#1e3a2e" stroke="#a6e3a1" stroke-width=".3" rx="1"/>
  <text x="24" y="66" fill="#a6e3a1" font-size="2.5" text-anchor="middle">react</text>
  <rect width="8" height="5" x="32" y="62" fill="#1e3a2e" stroke="#a6e3a1" stroke-width=".3" rx="1"/>
  <text x="36" y="66" fill="#a6e3a1" font-size="2.5" text-anchor="middle">css</text>
  <rect width="6" height="5" x="42" y="62" fill="#1e3a2e" stroke="#a6e3a1" stroke-width=".3" rx="1"/>
  <text x="45" y="66" fill="#a6e3a1" font-size="2.5" text-anchor="middle">js</text>
  <circle cx="14" cy="74" r="1.5" fill="#89b4fa"/>
  <text x="18" y="76" fill="#cdd6f4" font-size="3.5" font-weight="600">Operating System</text>
  <rect width="10" height="5" x="18" y="78" fill="#1e2a3a" stroke="#fab387" stroke-width=".3" rx="1"/>
  <text x="23" y="82" fill="#fab387" font-size="2.5" text-anchor="middle">rust</text>
  <path stroke="#313244" stroke-width=".3" d="M8 100h151"/>
  <text x="8" y="107" fill="#6c7086" font-size="3" font-weight="600" letter-spacing=".6">STACK</text>
  <rect width="6" height="5" x="8" y="110" fill="#1e3a2e" stroke="#a6e3a1" stroke-width=".3" rx="1"/>
  <text x="11" y="114" fill="#a6e3a1" font-size="2.5" text-anchor="middle">js</text>
  <rect width="8" height="5" x="16" y="110" fill="#1e3a2e" stroke="#a6e3a1" stroke-width=".3" rx="1"/>
  <text x="20" y="114" fill="#a6e3a1" font-size="2.5" text-anchor="middle">css</text>
  <rect width="10" height="5" x="26" y="110" fill="#1e3a2e" stroke="#a6e3a1" stroke-width=".3" rx="1"/>
  <text x="31" y="114" fill="#a6e3a1" font-size="2.5" text-anchor="middle">html</text>
  <rect width="12" height="5" x="38" y="110" fill="#1e3a2e" stroke="#a6e3a1" stroke-width=".3" rx="1"/>
  <text x="44" y="114" fill="#a6e3a1" font-size="2.5" text-anchor="middle">react</text>
  <rect width="14" height="5" x="52" y="110" fill="#2a2740" stroke="#f9e2af" stroke-width=".3" rx="1"/>
  <text x="59" y="114" fill="#f9e2af" font-size="2.5" text-anchor="middle">python</text>
  <rect width="6" height="5" x="68" y="110" fill="#1e2a3a" stroke="#89b4fa" stroke-width=".3" rx="1"/>
  <text x="71" y="114" fill="#89b4fa" font-size="2.5" text-anchor="middle">C</text>
  <rect width="10" height="5" x="76" y="110" fill="#1e2a3a" stroke="#fab387" stroke-width=".3" rx="1"/>
  <text x="81" y="114" fill="#fab387" font-size="2.5" text-anchor="middle">rust</text>
  <rect width="8" height="5" x="88" y="110" fill="#1e2a3a" stroke="#89b4fa" stroke-width=".3" rx="1"/>
  <text x="92" y="114" fill="#89b4fa" font-size="2.5" text-anchor="middle">lua</text>
  <rect width="18" height="5" x="8" y="117" fill="#2a2740" stroke="#cba6f7" stroke-width=".3" rx="1"/>
  <text x="17" y="121" fill="#cba6f7" font-size="2.5" text-anchor="middle">photopea</text>
  <rect width="20" height="5" x="28" y="117" fill="#1e2a3a" stroke="#89b4fa" stroke-width=".3" rx="1"/>
  <text x="38" y="121" fill="#89b4fa" font-size="2.5" text-anchor="middle">vscodium</text>
  <rect width="16" height="5" x="50" y="117" fill="#2a2740" stroke="#fab387" stroke-width=".3" rx="1"/>
  <text x="58" y="121" fill="#fab387" font-size="2.5" text-anchor="middle">blender</text>
</svg>
